<svg width="48" height="48" viewBox="0 0 48 48" fill="none" xmlns="http://www.w3.org/2000/svg">
<path d="M24 43.5C16.5 43.5 10.5 37.5 10.5 30V13.5C10.5 8.55 14.55 4.5 19.5 4.5H28.5C33.45 4.5 37.5 8.55 37.5 13.5V30C37.5 37.5 31.5 43.5 24 43.5Z" stroke="white" stroke-width="2" stroke-miterlimit="10" stroke-linecap="round" stroke-linejoin="round"/>
<path d="M24 4.5V12" stroke="white" stroke-width="2" stroke-miterlimit="10" stroke-linecap="round" stroke-linejoin="round"/>
<path d="M24 22.5C22.35 22.5 21 21.15 21 19.5V15C21 13.35 22.35 12 24 12C25.65 12 27 13.35 27 15V19.5C27 21.15 25.65 22.5 24 22.5Z" stroke="white" stroke-width="2" stroke-miterlimit="10" stroke-linecap="round" stroke-linejoin="round"/>
</svg>
