<svg width="48" height="48" viewBox="0 0 48 48" fill="none" xmlns="http://www.w3.org/2000/svg">
<path d="M14.506 36.988L15.954 37.834C18.3959 39.2581 21.1732 40.0058 24 40C27.1645 40 30.258 39.0616 32.8891 37.3035C35.5203 35.5454 37.5711 33.0466 38.7821 30.1229C39.9931 27.1993 40.3099 23.9823 39.6926 20.8786C39.0752 17.7749 37.5514 14.9239 35.3137 12.6863C33.0761 10.4487 30.2252 8.9248 27.1215 8.30744C24.0178 7.69007 20.8007 8.00693 17.8771 9.21793C14.9535 10.4289 12.4546 12.4797 10.6965 15.1109C8.9384 17.7421 8.00002 20.8355 8.00002 24C8.00002 26.872 8.75402 29.626 10.168 32.048L11.012 33.496L9.70602 38.298L14.506 36.988ZM4.00802 44L6.71202 34.064C4.93029 31.0097 3.99421 27.536 4.00002 24C4.00002 12.954 12.954 4 24 4C35.046 4 44 12.954 44 24C44 35.046 35.046 44 24 44C20.4656 44.0057 16.9933 43.0703 13.94 41.29L4.00802 44ZM16.782 14.616C17.05 14.596 17.32 14.596 17.588 14.608C17.696 14.616 17.804 14.628 17.912 14.64C18.23 14.676 18.58 14.87 18.698 15.138C19.294 16.49 19.874 17.852 20.434 19.218C20.558 19.522 20.484 19.912 20.248 20.292C20.0857 20.549 19.9101 20.7973 19.722 21.036C19.496 21.326 19.01 21.858 19.01 21.858C19.01 21.858 18.812 22.094 18.888 22.388C18.916 22.5 19.008 22.662 19.092 22.798L19.21 22.988C19.722 23.842 20.41 24.708 21.25 25.524C21.49 25.756 21.724 25.994 21.976 26.216C22.912 27.042 23.972 27.716 25.116 28.216L25.126 28.22C25.296 28.294 25.382 28.334 25.63 28.44C25.754 28.492 25.882 28.538 26.012 28.572C26.1464 28.6062 26.2878 28.5998 26.4185 28.5535C26.5492 28.5072 26.6632 28.4231 26.746 28.312C28.194 26.558 28.326 26.444 28.338 26.444V26.448C28.4386 26.3542 28.5581 26.283 28.6885 26.2392C28.8189 26.1953 28.9572 26.1799 29.094 26.194C29.214 26.202 29.336 26.224 29.448 26.274C30.51 26.76 32.248 27.518 32.248 27.518L33.412 28.04C33.608 28.134 33.786 28.356 33.792 28.57C33.8 28.704 33.812 28.92 33.766 29.316C33.702 29.834 33.546 30.456 33.39 30.782C33.2832 31.0045 33.1414 31.2084 32.97 31.386C32.7682 31.5979 32.5473 31.7907 32.31 31.962C32.2279 32.0237 32.1446 32.0837 32.06 32.142C31.8113 32.2998 31.5557 32.4466 31.294 32.582C30.7791 32.8555 30.2103 33.0126 29.628 33.042C29.258 33.062 28.888 33.09 28.516 33.07C28.5 33.07 27.38 32.896 27.38 32.896C24.5365 32.1481 21.9068 30.7469 19.7 28.804C19.248 28.406 18.83 27.978 18.402 27.552C16.622 25.782 15.278 23.872 14.462 22.068C14.0444 21.1826 13.8187 20.2188 13.8 19.24C13.7918 18.0257 14.1887 16.8433 14.928 15.88C15.074 15.692 15.212 15.496 15.45 15.27C15.704 15.03 15.864 14.902 16.038 14.814C16.2694 14.6981 16.5217 14.63 16.78 14.614L16.782 14.616Z" fill="url(#paint0_linear)"/>
<defs>
<linearGradient id="paint0_linear" x1="24" y1="4" x2="24" y2="44" gradientUnits="userSpaceOnUse">
<stop stop-color="#8430EA"/>
<stop offset="0.383333" stop-color="#00B8D0"/>
<stop offset="1" stop-color="#0E72DF"/>
</linearGradient>
</defs>
</svg>
